<?xml version="1.0" standalone="no"?>
<!DOCTYPE svg PUBLIC "-//W3C//DTD SVG 20010904//EN"
 "http://www.w3.org/TR/2001/REC-SVG-20010904/DTD/svg10.dtd">
<svg version="1.0" xmlns="http://www.w3.org/2000/svg"
 width="630.000000pt" height="561.000000pt" viewBox="0 0 630.000000 561.000000"
 preserveAspectRatio="xMidYMid meet">

<g transform="translate(0.000000,561.000000) scale(0.100000,-0.100000)"
fill="#000000" stroke="none">
<path d="M0 2805 l0 -2805 3150 0 3150 0 0 2805 0 2805 -3150 0 -3150 0 0
-2805z m3910 2681 c788 -115 1461 -535 1899 -1187 228 -338 367 -702 432
-1129 29 -190 32 -540 6 -730 -109 -787 -533 -1469 -1188 -1909 -337 -227
-695 -364 -1129 -433 -140 -22 -168 -23 -770 -23 -547 0 -641 2 -750 18 -795
113 -1469 533 -1909 1188 -228 338 -367 702 -432 1129 -29 190 -32 540 -6 730
109 787 533 1469 1188 1909 380 256 822 410 1293 451 50 4 352 7 671 5 479 -2
600 -5 695 -19z"/>
<path d="M877 4243 c-4 -3 -7 -14 -7 -24 0 -19 4 -20 88 -39 32 -8 58 -20 67
-33 13 -19 15 -127 15 -797 0 -855 3 -812 -63 -825 -95 -20 -108 -25 -105 -48
l3 -22 310 -3 c341 -3 376 1 481 52 160 77 251 205 275 387 31 226 -76 424
-282 522 -49 23 -88 45 -89 48 0 3 26 22 59 42 159 99 241 261 211 417 -30
158 -156 284 -318 319 -57 12 -634 16 -645 4z m606 -85 c232 -99 236 -518 6
-642 -38 -21 -70 -30 -118 -33 -79 -5 -109 8 -133 57 -16 31 -18 68 -18 307 0
268 0 272 23 298 41 48 143 54 240 13z m59 -781 c137 -67 211 -212 211 -412 0
-159 -42 -274 -132 -358 -58 -54 -99 -75 -179 -87 -106 -18 -190 22 -212 99
-6 21 -10 181 -10 369 0 363 2 375 58 407 20 12 50 15 118 12 74 -2 100 -8
146 -30z"/>
<path d="M3102 3961 c-85 -32 -142 -69 -214 -142 -81 -80 -118 -151 -118 -226
0 -62 17 -83 67 -83 76 0 119 52 146 177 31 141 82 203 172 211 52 4 56 3 89
-30 49 -49 57 -92 54 -279 l-3 -163 -80 -31 c-153 -60 -246 -118 -338 -211
-80 -81 -119 -163 -125 -262 -4 -70 -1 -82 25 -132 42 -80 101 -114 205 -119
106 -4 164 23 250 120 34 38 66 68 71 66 5 -1 20 -32 33 -67 30 -85 68 -120
130 -120 117 0 190 102 209 291 6 54 4 69 -10 82 -34 35 -51 14 -58 -75 -8
-110 -59 -169 -109 -128 l-23 18 -5 479 -5 479 -26 49 c-38 75 -97 108 -202
112 -63 3 -94 -1 -135 -16z m193 -786 c-1 -150 -3 -163 -27 -216 -29 -64 -88
-133 -132 -156 -41 -21 -115 -21 -147 1 -39 25 -54 70 -54 161 1 101 32 174
105 245 54 53 201 133 235 128 19 -3 20 -9 20 -163z"/>
<path d="M4109 3962 c-152 -50 -280 -206 -329 -398 -64 -249 -37 -538 65 -709
49 -82 89 -120 159 -155 50 -25 71 -30 135 -30 164 0 257 90 312 302 28 108
31 181 7 186 -20 4 -26 -7 -62 -129 -27 -92 -73 -169 -119 -203 -22 -16 -43
-21 -96 -21 -58 0 -72 4 -104 28 -109 83 -163 330 -139 634 16 204 61 334 141
406 74 67 153 45 208 -59 24 -45 93 -246 93 -271 0 -2 12 -3 28 -1 l27 3 2
170 c3 193 -1 210 -62 240 -57 28 -192 31 -266 7z"/>
<path d="M1818 1876 c-22 -16 -48 -77 -48 -109 0 -15 -9 -28 -22 -35 l-23 -11
23 0 c22 -1 22 -2 22 -146 0 -138 -1 -145 -20 -145 -11 0 -20 -4 -20 -10 0 -6
32 -10 75 -10 43 0 75 4 75 10 0 6 -13 10 -30 10 l-30 0 0 145 0 145 35 0 c19
0 35 5 35 10 0 6 -16 10 -35 10 l-35 0 0 54 c0 71 22 92 47 47 19 -33 46 -37
51 -8 9 44 -60 74 -100 43z"/>
<path d="M1961 1724 c-59 -41 -79 -170 -40 -251 20 -42 60 -73 94 -73 62 0
115 79 115 171 -1 97 -49 169 -115 169 -17 0 -41 -7 -54 -16z m95 -30 c22 -32
30 -155 15 -211 -13 -46 -40 -68 -71 -58 -34 11 -44 45 -45 145 0 75 4 102 18
123 23 35 61 36 83 1z"/>
<path d="M2186 1716 c-37 -18 -38 -20 -18 -27 21 -8 22 -14 22 -134 0 -102 -3
-125 -14 -125 -8 0 -18 -4 -21 -10 -4 -6 18 -10 59 -10 37 0 66 4 66 10 0 6
-9 10 -20 10 -19 0 -20 7 -20 104 0 58 4 116 10 131 13 33 37 42 54 20 16 -22
46 -14 46 13 0 44 -49 55 -87 20 -19 -18 -23 -19 -23 -5 0 24 -11 25 -54 3z"/>
<path d="M2520 1712 c-77 -77 -58 -265 30 -302 24 -10 36 -10 61 1 30 12 59
58 59 94 0 27 -15 16 -32 -25 -13 -32 -22 -40 -42 -40 -14 0 -34 8 -45 19 -19
19 -37 103 -26 121 3 5 38 10 77 10 l71 0 -5 50 c-9 96 -87 133 -148 72z m88
-4 c7 -7 12 -31 12 -55 l0 -43 -51 0 c-46 0 -50 2 -45 20 3 11 9 30 12 43 13
45 46 61 72 35z"/>
<path d="M2680 1735 c0 -3 8 -13 18 -23 9 -9 37 -83 61 -165 25 -81 48 -147
51 -147 4 0 28 69 54 153 25 83 53 157 61 163 25 19 17 24 -35 24 -27 0 -50
-4 -50 -10 0 -5 7 -10 15 -10 9 0 18 -6 21 -14 7 -18 -47 -199 -57 -189 -11
12 -58 186 -53 195 3 4 12 8 20 8 8 0 14 5 14 10 0 6 -27 10 -60 10 -33 0 -60
-2 -60 -5z"/>
<path d="M2992 1710 c-101 -101 -34 -341 85 -303 31 10 67 71 61 100 -3 13 -9
7 -21 -20 -38 -88 -118 -48 -121 61 l-1 37 73 3 72 3 0 42 c0 39 -19 82 -44
99 -26 18 -75 8 -104 -22z m86 -2 c9 -12 16 -54 13 -85 -1 -9 -18 -13 -50 -13
l-49 0 7 33 c16 69 51 98 79 65z"/>
<path d="M3203 1721 c-35 -17 -43 -31 -18 -31 13 0 15 -21 15 -130 0 -109 -2
-130 -15 -130 -8 0 -15 -4 -15 -10 0 -6 29 -10 66 -10 41 0 63 4 59 10 -3 6
-15 10 -26 10 -18 0 -19 8 -19 105 0 136 28 199 65 148 16 -21 45 -10 45 18 0
52 28 2 67 -122 47 -150 50 -174 27 -227 -14 -34 -17 -35 -28 -19 -17 22 -33
22 -45 -2 -14 -26 8 -54 40 -49 32 4 45 34 114 248 31 96 62 178 70 183 29 16
14 27 -35 27 -27 0 -50 -4 -50 -10 0 -5 7 -10 15 -10 9 0 18 -6 21 -14 6 -16
-45 -196 -56 -196 -6 0 -60 176 -60 198 0 7 9 12 21 12 11 0 17 5 14 10 -3 6
-45 10 -92 10 -75 0 -90 -3 -110 -22 l-23 -21 0 21 c0 25 -3 25 -47 3z"/>
<path d="M3796 1715 c-56 -52 -72 -153 -37 -231 66 -146 210 -85 211 89 0 133
-98 213 -174 142z m99 -15 c24 -26 33 -169 15 -224 -21 -65 -77 -72 -101 -13
-21 49 -18 196 4 230 21 33 56 35 82 7z"/>
<path d="M4033 1721 c-35 -17 -43 -31 -18 -31 13 0 15 -21 15 -130 0 -109 -2
-130 -15 -130 -8 0 -15 -4 -15 -10 0 -6 29 -10 66 -10 41 0 63 4 59 10 -3 6
-15 10 -26 10 -18 0 -19 8 -19 105 0 118 14 161 55 171 48 12 55 -6 55 -147 0
-108 -2 -129 -15 -129 -8 0 -15 -4 -15 -10 0 -6 27 -10 60 -10 33 0 60 4 60
10 0 6 -9 10 -20 10 -19 0 -20 7 -20 133 0 104 -3 137 -16 155 -20 28 -65 29
-110 1 l-34 -21 0 21 c0 24 -3 24 -47 2z"/>
<path d="M4350 1712 c-77 -77 -58 -265 30 -302 24 -10 36 -10 61 1 30 12 59
58 59 94 0 27 -15 16 -32 -25 -13 -32 -22 -40 -42 -40 -14 0 -34 8 -45 19 -19
19 -37 103 -26 121 3 5 38 10 77 10 l71 0 -5 50 c-9 96 -87 133 -148 72z m88
-4 c7 -7 12 -31 12 -55 l0 -43 -51 0 c-46 0 -50 2 -45 20 3 11 9 30 12 43 13
45 46 61 72 35z"/>
<path d="M2881 1304 c-187 -50 -337 -202 -386 -390 -73 -279 105 -574 391
-649 79 -20 300 -20 378 0 191 50 341 200 391 391 73 279 -105 574 -391 649
-76 20 -308 19 -383 -1z m345 -3 c235 -45 411 -239 430 -476 14 -169 -70 -360
-199 -453 l-45 -32 -338 0 -337 0 -53 41 c-104 80 -179 224 -190 364 -22 260
163 503 421 555 57 11 253 12 311 1z"/>
<path d="M3201 1144 c-28 -30 -51 -65 -51 -75 0 -11 -4 -18 -9 -15 -16 10 -53
-94 -50 -143 1 -25 -5 -72 -15 -104 -10 -32 -16 -60 -14 -63 3 -2 11 15 18 38
8 28 33 66 71 106 58 62 70 82 48 82 -6 0 -2 8 10 18 25 20 65 127 58 154 -3
10 -1 21 4 24 5 3 9 12 9 20 0 28 -29 13 -79 -42z m-65 -191 c-14 -26 -25 -45
-26 -41 0 12 43 98 48 94 2 -2 -8 -26 -22 -53z"/>
<path d="M2863 933 c-3 -10 -19 -51 -34 -92 -16 -41 -28 -76 -26 -77 1 -2 25
-12 52 -24 28 -12 75 -39 105 -61 l55 -40 -45 41 c-25 23 -66 53 -92 66 -27
14 -48 27 -48 31 0 3 12 39 27 80 31 84 41 88 111 48 52 -30 55 -24 5 9 -54
35 -101 43 -110 19z"/>
<path d="M3217 943 c-4 -6 6 -46 23 -88 16 -41 30 -78 30 -80 0 -3 -20 -15
-46 -26 -25 -12 -66 -42 -92 -66 l-47 -44 55 41 c30 22 78 50 107 61 l51 22
-23 62 c-43 114 -51 130 -58 118z"/>
<path d="M2776 836 c-53 -116 -54 -109 7 -124 54 -13 203 -79 195 -87 -2 -2
-32 7 -66 21 -35 14 -90 30 -122 36 -36 6 -57 14 -54 20 4 6 1 9 -7 6 -8 -3
-15 -11 -17 -20 -2 -11 16 -17 81 -27 46 -7 109 -23 140 -36 113 -46 61 16
-63 74 -36 17 -73 31 -83 31 -10 0 -20 6 -23 13 -6 16 54 147 68 147 5 0 6 5
3 10 -13 22 -27 7 -59 -64z"/>
<path d="M3265 901 c-3 -6 -2 -11 3 -11 10 0 75 -141 68 -148 -3 -2 -34 -14
-69 -27 -72 -25 -154 -77 -154 -98 0 -10 13 -8 56 9 30 12 92 28 138 35 46 7
83 15 83 18 0 3 -5 13 -10 21 -8 12 -12 12 -18 3 -5 -7 -34 -18 -67 -24 -32
-6 -83 -22 -113 -35 -30 -13 -57 -22 -59 -20 -14 14 182 96 229 96 10 0 18 2
18 4 0 2 -18 43 -39 92 -39 87 -53 105 -66 85z"/>
<path d="M2692 626 l-10 -23 106 -6 c59 -3 132 -13 162 -22 91 -27 112 -28
180 -5 44 15 100 24 173 28 59 2 107 8 107 13 0 4 -3 14 -6 23 -14 36 -207 3
-304 -51 l-49 -27 -64 32 c-68 33 -181 62 -246 62 -30 0 -40 -5 -49 -24z"/>
</g>
</svg>
